<svg xmlns="http://www.w3.org/2000/svg" xmlns:xlink="http://www.w3.org/1999/xlink" id="Layer_1" x="0" y="0" version="1.1" viewBox="0 0 200.4 66.5" style="enable-background:new 0 0 200.4 66.5" xml:space="preserve"><style type="text/css">.st0{fill:#7b878d}.st1{fill:#bdc5d1}.st2{fill:#e7eaf3}</style><path d="M100.2,66.5l13.3-40.9H86.9L100.2,66.5L100.2,66.5z" class="st0"/><path d="M100.2,66.5L86.9,25.6H68.3L100.2,66.5z" class="st1"/><path d="M68.3,25.6l-4,12.4c-0.4,1.1,0.1,2.3,1,3.1l34.9,25.4L68.3,25.6L68.3,25.6z" class="st2"/><path d="M68.3,25.6h18.6l-8-24.7c-0.4-1.3-2.2-1.3-2.6,0L68.3,25.6L68.3,25.6z" class="st0"/><path d="M100.2,66.5l13.3-40.9h18.6L100.2,66.5L100.2,66.5z" class="st1"/><path d="M132.1,25.6l4,12.4c0.4,1.1-0.1,2.3-1,3.1l-34.9,25.4L132.1,25.6L132.1,25.6z" class="st2"/><path d="M132.1,25.6h-18.6l8-24.7c0.4-1.3,2.2-1.3,2.6,0L132.1,25.6L132.1,25.6z" class="st0"/></svg>